<?xml version="1.0" standalone="no"?>
<!DOCTYPE svg PUBLIC "-//W3C//DTD SVG 20010904//EN" 
 "http://www.w3.org/TR/2001/REC-SVG-20010904/DTD/svg10.dtd">
<svg version="1.0" xmlns="http://www.w3.org/2000/svg"
 width="500.000000pt" height="500.000000pt"
 preserveAspectRatio="xMidYMid meet">
 <g transform="translate(-75.000000,420.000000) scale(0.100000,-0.100000)" fill="#E6231C" stroke="none">
<path d="M1826 4162 c-171 -1 -264 -6 -273 -13 -9 -8 -13 -8 -13 0 0 6 -7 11 -15 11 -8 0 -15 -4 -15 -10 0 -6 -32 -10 -75 -10 -43 0 -75 -4 -75 -10 0 -6 -35 -10 -85 -10 -50 0 -85 -4 -85 -10 0 -6 -45 -10 -114 -10 -66 0 -117 -4 -121 -10 -3 -5 -13 -10 -22 -10 -9 0 -26 -12 -39 -27 -22 -25 -24 -38 -24 -120 0 -55 -4 -93 -10 -93 -6 0 -10 -48 -10 -123 0 -76 -4 -127 -11 -134 -6 -6 -11 -46 -12 -88 0 -54 -4 -78 -14 -82 -10 -4 -13 -48 -13 -209 0 -120 4 -204 9 -204 19 0 23 -41 7 -59 -23 -25 -23 -205 -1 -228 14 -14 14 -17 0 -32 -18 -21 -21 -127 -4 -133 19 -6 22 -77 4 -84 -23 -9 -23 -449 0 -458 8 -3 14 -9 13 -13 -1 -4 4 -18 12 -30 13 -20 23 -23 87 -23 42 0 73 -4 73 -10 0 -5 18 -10 40 -10 22 0 40 -4 40 -10 0 -5 11 -10 25 -10 14 0 25 5 25 10 0 6 38 10 95 10 57 0 95 -4 95 -10 0 -6 63 -10 169 -10 103 0 172 -4 176 -10 8 -13 195 -13 195 0 0 6 28 10 65 10 37 0 65 -4 65 -10 0 -5 9 -10 20 -10 11 0 20 5 20 10 0 6 16 10 35 10 l35 0 0 -95 c0 -57 4 -95 10 -95 6 0 10 -9 10 -20 0 -11 -4 -20 -10 -20 -13 0 -13 -127 0 -135 6 -3 10 -24 10 -46 0 -21 -4 -39 -10 -39 -6 0 -10 -82 -10 -225 0 -143 4 -225 10 -225 6 0 10 -8 10 -18 0 -36 32 -52 103 -52 36 0 69 -4 72 -10 3 -5 24 -10 46 -10 21 0 39 -4 39 -10 0 -5 11 -10 25 -10 14 0 25 5 25 10 0 6 38 10 95 10 57 0 95 -4 95 -10 0 -6 63 -10 170 -10 107 0 170 -4 170 -10 0 -6 40 -10 100 -10 60 0 100 4 100 10 0 6 27 10 60 10 33 0 60 -4 60 -10 0 -5 11 -10 25 -10 14 0 25 5 25 10 0 6 67 10 180 10 113 0 180 4 180 10 0 6 25 10 55 10 30 0 55 5 55 10 0 6 7 10 16 10 20 0 74 54 74 74 0 9 5 16 10 16 6 0 10 9 10 20 0 11 5 20 10 20 6 0 10 13 10 29 0 17 5 33 10 36 6 3 10 19 10 35 0 16 7 30 16 34 8 3 13 10 10 15 -3 5 1 14 9 21 8 7 15 25 15 41 0 16 5 29 10 29 6 0 10 13 10 29 0 17 5 33 10 36 5 3 10 15 10 26 0 10 5 19 10 19 6 0 10 9 10 20 0 11 5 20 10 20 6 0 10 14 10 30 0 18 6 33 15 36 8 4 15 15 15 25 0 10 5 19 10 19 6 0 10 14 10 30 0 17 5 30 10 30 6 0 10 11 10 25 0 14 5 25 10 25 6 0 10 14 10 30 0 17 -4 30 -10 30 -5 0 -10 7 -10 16 0 19 -24 44 -42 44 -7 0 -27 16 -43 35 -17 19 -38 35 -47 35 -10 0 -18 5 -18 10 0 6 -8 10 -18 10 -11 0 -27 9 -37 20 -10 11 -24 20 -32 20 -7 0 -16 7 -19 15 -4 8 -17 15 -30 15 -13 0 -24 5 -24 10 0 6 -7 10 -15 10 -9 0 -27 11 -41 25 -22 22 -23 27 -10 40 8 8 19 15 25 15 5 0 25 16 44 35 19 19 41 35 51 35 9 0 16 8 16 20 0 11 5 20 10 20 6 0 10 8 10 18 0 11 9 27 20 37 12 11 20 31 20 50 0 18 7 38 15 45 8 7 15 25 15 41 0 16 5 29 10 29 6 0 10 14 10 30 0 17 5 30 10 30 6 0 10 9 10 20 0 11 5 20 10 20 6 0 10 20 10 45 0 25 5 45 10 45 6 0 10 18 10 40 0 36 -6 47 -60 100 -34 33 -65 60 -70 60 -5 0 -42 32 -82 70 -40 39 -77 70 -81 70 -4 0 -33 25 -64 55 -31 30 -63 55 -70 55 -8 0 -27 16 -44 35 -17 19 -37 35 -43 35 -7 0 -21 9 -31 20 -12 13 -31 20 -57 20 -21 0 -38 5 -38 10 0 6 -105 10 -295 10 -211 0 -295 -3 -295 -11 0 -8 -6 -7 -17 2 -13 11 -17 11 -20 2 -3 -9 -28 -13 -79 -13 -43 0 -74 -4 -74 -10 0 -5 -20 -10 -45 -10 -25 0 -45 5 -45 10 0 6 11 10 25 10 18 0 25 5 25 20 0 11 5 20 10 20 6 0 10 10 10 23 0 12 9 29 20 37 14 10 20 26 20 52 0 21 5 38 10 38 6 0 10 16 10 35 0 19 5 35 10 35 6 0 10 14 10 30 0 17 5 30 10 30 6 0 10 9 10 20 0 11 5 20 10 20 6 0 10 20 10 45 0 33 4 45 15 45 11 0 15 12 15 45 0 25 -4 45 -8 45 -13 0 -102 87 -102 99 0 6 -8 11 -18 11 -10 0 -52 34 -95 75 -42 41 -81 75 -86 75 -5 0 -32 23 -60 50 -28 28 -57 50 -64 50 -7 0 -26 16 -42 35 -17 19 -37 35 -45 35 -9 0 -22 9 -30 20 -11 15 -26 20 -57 20 -24 0 -43 4 -43 9 0 14 -42 16 -314 13z m294 -182 c0 -5 8 -10 18 -10 10 0 24 -9 32 -20 8 -11 25 -20 37 -20 13 0 23 -4 23 -10 0 -5 8 -10 18 -10 9 0 26 -11 36 -25 10 -14 26 -25 35 -25 9 0 23 -9 31 -20 8 -11 20 -20 28 -20 7 0 33 -20 58 -45 24 -25 48 -45 53 -45 6 0 42 -30 80 -67 58 -56 71 -73 71 -99 0 -31 -23 -89 -40 -99 -5 -3 -7 -14 -5 -25 2 -10 -3 -24 -11 -31 -8 -6 -14 -20 -14 -30 0 -11 -4 -19 -10 -19 -5 0 -10 -13 -10 -30 0 -16 -4 -30 -10 -30 -5 0 -10 -7 -10 -15 0 -22 -69 -95 -89 -95 -9 0 -23 -9 -31 -20 -8 -11 -21 -20 -30 -20 -8 0 -24 -11 -34 -25 -10 -14 -24 -25 -30 -25 -18 0 -66 -24 -66 -32 0 -5 -8 -8 -17 -8 -9 0 -27 -10 -40 -22 -21 -19 -23 -30 -23 -115 0 -55 -4 -93 -10 -93 -6 0 -10 -50 -10 -129 0 -105 -3 -130 -15 -135 -12 -4 -15 -23 -15 -85 0 -44 -4 -83 -10 -86 -6 -4 -10 -67 -10 -156 l0 -149 -572 2 -573 3 -3 183 c-2 119 1 182 8 182 7 0 10 150 10 450 0 400 2 451 16 457 13 5 15 33 13 216 -2 154 1 212 9 215 7 2 12 25 12 58 0 53 0 54 30 54 17 0 30 5 30 10 0 6 40 10 99 10 70 0 101 4 105 13 5 10 7 10 12 0 7 -15 44 -17 44 -3 0 6 28 10 65 10 37 0 65 4 65 10 0 6 57 10 150 10 93 0 150 4 150 10 0 6 65 10 175 10 110 0 175 -4 175 -10z m1300 -1010 c0 -5 8 -10 18 -10 10 0 24 -9 32 -20 8 -11 22 -20 32 -20 10 0 18 -4 18 -10 0 -5 8 -10 19 -10 10 0 27 -11 37 -25 10 -14 26 -25 34 -25 9 0 22 -9 30 -20 8 -11 24 -20 35 -20 11 0 37 -20 59 -45 22 -25 45 -45 52 -45 7 0 42 -30 78 -66 62 -61 66 -68 66 -110 0 -24 -4 -44 -10 -44 -5 0 -10 -9 -10 -20 0 -11 -4 -20 -10 -20 -5 0 -10 -13 -10 -30 0 -16 -4 -30 -10 -30 -5 0 -10 -9 -10 -19 0 -11 -4 -23 -10 -26 -5 -3 -10 -19 -10 -36 0 -16 -4 -29 -10 -29 -5 0 -10 -7 -10 -16 0 -19 -74 -94 -93 -94 -7 0 -19 -9 -27 -20 -8 -11 -22 -20 -31 -20 -10 0 -26 -11 -37 -25 -11 -14 -25 -25 -31 -25 -7 0 -21 -9 -33 -20 -12 -11 -32 -20 -46 -20 -21 0 -52 -20 -52 -34 0 -3 8 -6 18 -6 10 0 28 -9 40 -20 12 -11 28 -20 37 -20 8 0 15 -4 15 -10 0 -5 9 -10 20 -10 11 0 20 -4 20 -10 0 -5 7 -10 16 -10 9 0 27 -11 40 -25 13 -14 30 -25 39 -25 8 0 15 -4 15 -10 0 -5 8 -10 18 -10 10 0 24 -9 32 -20 8 -11 22 -20 31 -20 9 0 31 -15 50 -32 34 -33 73 -58 91 -58 27 0 50 -52 28 -65 -5 -3 -10 -19 -10 -36 0 -16 -4 -29 -10 -29 -5 0 -10 -9 -10 -19 0 -10 -7 -21 -15 -25 -8 -3 -15 -15 -15 -26 0 -11 -4 -20 -10 -20 -5 0 -10 -13 -10 -30 0 -16 -4 -30 -10 -30 -5 0 -10 -16 -10 -35 0 -19 -4 -35 -10 -35 -5 0 -10 -9 -10 -20 0 -11 -4 -20 -10 -20 -5 0 -10 -9 -10 -20 0 -11 -4 -20 -10 -20 -5 0 -10 -9 -10 -20 0 -11 -7 -23 -15 -26 -8 -4 -15 -18 -15 -33 0 -15 -9 -33 -20 -41 -11 -8 -20 -22 -20 -32 0 -9 -4 -20 -10 -23 -5 -3 -10 -15 -10 -26 0 -19 -14 -19 -745 -19 l-745 0 0 185 c0 117 4 185 10 185 7 0 10 158 10 455 0 297 3 455 10 455 6 0 10 78 10 215 0 129 4 215 9 215 6 0 11 24 13 53 3 51 4 52 36 55 17 2 32 7 32 13 0 5 43 9 95 9 57 0 95 4 95 10 0 6 7 10 15 10 8 0 15 -4 15 -10 0 -5 9 -10 20 -10 11 0 20 5 20 10 0 6 26 10 59 10 33 0 63 5 66 10 4 6 67 10 156 10 93 0 149 4 149 10 0 6 65 10 175 10 110 0 175 -4 175 -10z"/>
<path d="M1437 3683 c-4 -3 -7 -53 -7 -110 0 -62 -4 -103 -10 -103 -6 0 -10 -60 -10 -160 0 -151 1 -160 19 -160 11 0 21 5 23 12 2 6 21 11 41 11 21 0 38 6 41 14 4 8 23 13 56 13 27 0 50 5 50 10 0 6 20 10 45 10 25 0 45 5 45 10 0 6 18 10 39 10 22 0 43 5 46 10 3 6 24 10 46 10 21 0 39 5 39 10 0 6 23 10 51 10 67 0 79 13 79 89 0 34 4 61 10 61 6 0 10 30 10 71 0 78 -12 99 -54 99 -14 0 -26 5 -26 10 0 6 -28 10 -65 10 -37 0 -65 4 -65 10 0 6 -28 10 -65 10 -37 0 -65 4 -65 10 0 6 -35 10 -85 10 -67 0 -87 3 -91 15 -6 15 -84 22 -97 8z m143 -133 c0 -6 26 -10 58 -10 32 0 63 -5 69 -11 7 -7 37 -11 68 -10 41 1 57 -3 61 -14 4 -10 20 -15 45 -15 l39 0 0 -48 c0 -61 -19 -80 -79 -77 -27 1 -45 -4 -48 -12 -3 -8 -23 -13 -53 -13 -27 0 -52 -4 -55 -10 -3 -5 -19 -10 -36 -10 -16 0 -29 -4 -29 -10 0 -5 -18 -10 -40 -10 l-40 0 0 94 c0 53 4 98 10 101 6 3 10 19 10 36 0 16 5 29 10 29 6 0 10 -4 10 -10z"/>
<path d="M1925 2940 c-3 -5 -33 -10 -66 -10 -33 0 -59 -4 -59 -10 0 -5 -25 -10 -55 -10 -30 0 -55 -4 -55 -10 0 -5 -20 -10 -45 -10 -25 0 -45 -4 -45 -10 0 -5 -18 -10 -40 -10 -22 0 -40 -4 -40 -10 0 -5 -17 -10 -38 -10 -25 0 -45 -7 -55 -18 -19 -21 -22 -57 -7 -67 6 -4 10 -83 10 -206 l0 -199 85 0 c50 0 85 4 85 10 0 6 47 10 120 10 73 0 120 4 120 10 0 6 7 10 16 10 31 0 44 27 44 89 0 34 4 61 10 61 6 0 10 32 10 75 0 43 4 75 10 75 6 0 10 35 10 84 0 46 4 86 8 88 5 2 12 20 15 41 5 32 3 37 -13 37 -10 0 -22 -4 -25 -10z m-113 -182 c2 -40 -3 -73 -13 -76 -5 -2 -9 -35 -9 -74 0 -79 -12 -98 -60 -98 -17 0 -38 -7 -47 -16 -14 -13 -71 -15 -140 -4 -2 0 -3 32 -3 70 0 40 -4 70 -10 70 -5 0 -10 25 -10 55 0 48 2 55 20 55 11 0 20 5 20 10 0 6 28 10 65 10 37 0 65 4 65 10 0 6 27 10 60 10 55 0 60 -2 62 -22z"/>
<path d="M2730 2576 c0 -59 -4 -108 -10 -111 -6 -4 -10 -70 -10 -166 0 -135 2 -159 15 -159 8 0 15 5 15 10 0 6 20 10 44 10 24 0 46 5 48 11 2 6 27 14 56 17 29 2 52 8 52 13 0 5 18 9 39 9 22 0 43 5 46 10 3 6 24 10 46 10 21 0 39 5 39 10 0 6 20 10 45 10 25 0 45 5 45 10 0 6 21 10 46 10 61 0 78 18 81 89 1 31 7 57 12 59 7 2 11 33 11 74 0 78 -12 97 -62 98 -16 0 -28 5 -28 10 0 6 -28 10 -65 10 -37 0 -65 4 -65 10 0 6 -26 10 -59 10 -33 0 -63 5 -66 10 -3 6 -42 10 -86 10 -62 0 -81 3 -85 15 -4 11 -21 15 -55 15 l-49 0 0 -104z m206 -46 c34 0 56 -5 64 -15 8 -10 31 -15 71 -15 33 0 59 -4 59 -10 0 -5 20 -10 45 -10 l45 0 0 -46 c0 -60 -25 -84 -87 -84 -23 0 -43 -4 -43 -10 0 -5 -25 -10 -55 -10 -30 0 -55 -4 -55 -10 0 -5 -13 -10 -28 -10 -15 0 -33 -5 -39 -11 -6 -6 -26 -9 -44 -7 l-34 3 -3 89 c-2 69 0 91 12 100 9 6 14 20 12 31 -5 27 4 39 17 26 6 -6 34 -11 63 -11z"/>
<path d="M3220 1930 c0 -6 -28 -10 -65 -10 -37 0 -65 -4 -65 -10 0 -5 -22 -10 -49 -10 -28 0 -53 -4 -56 -10 -3 -5 -24 -10 -46 -10 -21 0 -39 -4 -39 -10 0 -5 -18 -10 -39 -10 -22 0 -43 -4 -46 -10 -3 -5 -22 -10 -42 -10 -22 0 -41 -7 -49 -17 -16 -21 -18 -73 -4 -73 6 0 10 -73 10 -200 l0 -200 85 0 c50 0 85 4 85 10 0 6 45 10 115 10 70 0 115 4 115 10 0 6 8 10 18 10 38 1 52 24 52 89 0 34 4 61 10 61 6 0 10 32 10 75 0 43 4 75 10 75 6 0 10 35 10 85 0 50 4 85 10 85 6 0 10 18 10 40 0 33 -3 40 -20 40 -11 0 -20 -4 -20 -10z m-110 -210 c0 -27 -4 -50 -10 -50 -6 0 -10 -30 -10 -71 0 -81 -11 -99 -63 -99 -19 0 -40 -7 -47 -15 -10 -12 -29 -15 -79 -13 l-66 3 -3 70 c-2 39 -7 74 -13 80 -5 5 -9 28 -9 51 0 38 4 44 32 58 17 9 55 16 84 16 29 0 56 5 59 10 3 6 33 10 66 10 l59 0 0 -50z"/>
 </g>
</svg>