<?xml version="1.0" encoding="utf-8"?>
<!DOCTYPE svg PUBLIC "-//W3C//DTD SVG 20010904//EN" "http://www.w3.org/TR/2001/REC-SVG-20010904/DTD/svg10.dtd">
<svg height="224.000000pt" preserveAspectRatio="xMidYMid meet" version="1.0" viewBox="0 0 1111.000000 224.000000" width="1111.000000pt" xmlns="http://www.w3.org/2000/svg">
<g transform="translate(0.000000,224.000000) scale(0.100000,-0.100000)">
    <!-- White background -->
    <rect width="11110" height="2240" fill="#FFFFFF"/>
    
    <!-- White spaces inside letters -->
    <path fill="#FFFFFF" d="M2846 2164 c-174 -27 -189 -47 -206 -264 -6 -80 -13 -151 -16 -159 -4 -12 -30 -13 -150 -8 -239 11 -240 10 -260 -297 -29 -451 -64 -613 -93 -428 -5 37 -15 130 -22 207 -18 226 -19 228 -168 377 -69 70 -140 132 -156 140 -21 8 -91 13 -224 14 l-194 1 -57 46 c-31 25 -96 73 -145 106 l-89 61 -149 0 c-153 0 -421 -20 -583 -45 -140 -20 -177 -47 -188 -135 -12 -90 -36 -712 -38 -985 -1 -208 1 -288 11 -310 7 -16 70 -87 140 -157 102 -101 136 -129 171 -140 65 -19 1074 -19 1108 0 13 8 34 38 47 67 13 29 29 56 35 60 6 4 38 -19 74 -53 72 -69 106 -86 231 -113 162 -35 843 -55 962 -28 25 5 56 18 71 29 26 20 47 20 969 23 848 2 944 4 958 18 9 9 29 52 44 95 37 107 38 109 66 90 13 -9 43 -34 67 -56 24 -22 69 -58 100 -79 53 -36 64 -40 150 -46 103 -8 372 -12 458 -7 30 2 102 1 160 -3 58 -3 400 -7 761 -8 l655 -2 39 -33 c22 -17 49 -32 60 -32 11 0 90 11 175 24 85 14 182 29 215 33 l60 8 3 93 c2 69 6 94 17 98 8 4 51 -24 102 -67 48 -39 104 -79 123 -87 93 -39 805 -38 864 2 14 8 54 45 89 81 35 36 71 65 80 65 8 0 51 -23 94 -52 86 -57 254 -140 321 -158 91 -24 120 1 240 198 40 66 79 123 88 126 9 3 26 -2 39 -11 102 -80 202 -151 369 -264 253 -170 267 -173 397 -72 102 79 265 219 316 272 40 41 43 49 43 99 l0 54 -132 132 c-147 146 -139 141 -415 256 -107 44 -153 68 -153 79 0 23 188 192 348 314 159 121 182 154 148 215 -21 39 -248 262 -293 288 -73 43 -378 134 -451 134 -24 0 -59 -7 -77 -16 -39 -18 -203 -161 -351 -306 -56 -54 -108 -98 -116 -98 -8 0 -44 30 -79 66 -104 108 -123 124 -143 124 -26 0 -186 -52 -307 -100 -56 -22 -106 -40 -111 -40 -6 0 -46 33 -88 74 -68 64 -85 76 -127 83 -62 10 -530 7 -648 -5 -49 -5 -97 -6 -105 -1 -12 6 -14 23 -12 74 l4 66 -107 109 c-59 60 -119 113 -134 119 -52 20 -379 61 -489 61 -147 0 -172 -32 -172 -218 0 -75 -4 -123 -11 -127 -5 -4 -36 13 -67 38 -114 89 -108 87 -289 87 -90 0 -238 -7 -330 -15 -373 -34 -415 -49 -433 -155 l-5 -35 -195 4 c-174 3 -198 6 -223 23 -48 34 -153 42 -338 24 -188 -18 -247 -31 -313 -70 -58 -34 -77 -64 -117 -183 -23 -69 -35 -93 -48 -93 -9 0 -48 28 -86 61 -76 68 -133 98 -182 99 -17 0 -34 3 -36 8 -3 4 0 48 5 99 17 145 16 146 -135 295 -73 72 -146 137 -164 144 -18 8 -58 14 -90 14 -81 0 -241 -24 -285 -43 -64 -27 -68 -42 -89 -304 -20 -254 -24 -283 -39 -283 -5 0 -31 14 -59 31 -28 18 -69 34 -95 36 -25 3 -47 11 -49 17 -3 6 -1 34 4 61 4 28 8 81 8 120 l1 70 -137 134 c-75 73 -151 140 -169 147 -41 17 -140 16 -258 -2z m1226 -93 c3 -3 0 -58 -7 -121 -7 -63 -23 -194 -34 -290 -12 -97 -21 -184 -21 -194 0 -23 31 -20 234 23 82 17 165 31 185 31 45 0 69 -17 202 -140 117 -109 111 -82 74 -339 -30 -207 -57 -336 -94 -446 l-27 -80 -59 -8 c-70 -10 -812 -4 -822 7 -4 4 -1 26 5 49 45 154 122 605 122 713 0 49 -2 52 -66 114 -65 64 -66 65 -60 108 5 38 18 175 44 467 l7 80 65 13 c138 27 232 32 252 13z m-998 1 c2 -4 -4 -82 -15 -172 -10 -91 -23 -210 -29 -265 -5 -55 -13 -120 -16 -144 l-6 -44 44 6 c24 3 110 20 193 36 82 17 166 31 186 31 44 0 90 -34 223 -162 l86 -83 -30 -200 c-39 -266 -56 -354 -86 -452 -41 -131 7 -118 -442 -118 -215 0 -392 2 -395 5 -2 3 0 208 4 455 9 556 1 667 -49 727 -12 15 -13 36 -3 137 6 65 11 140 11 165 0 31 5 48 14 52 60 23 299 43 310 26z m4440 -16 c59 -8 111 -17 114 -20 3 -4 -2 -115 -12 -249 -27 -395 -46 -820 -46 -1056 0 -258 17 -229 -150 -255 -119 -19 -146 -20 -154 -7 -3 5 -11 54 -17 110 l-11 100 40 98 c78 190 76 220 -21 291 l-55 41 -7 84 c-6 74 -4 90 14 131 42 92 81 208 81 242 0 46 -20 83 -66 124 -26 23 -39 44 -45 74 -10 52 -11 300 -1 311 9 10 196 -1 336 -19z m2726 -209 c180 -48 300 -93 300 -111 0 -6 -28 -32 -63 -57 -192 -143 -402 -330 -515 -458 l-56 -64 32 -25 c78 -60 512 -274 709 -349 69 -26 93 -40 93 -53 0 -20 -139 -151 -275 -260 -118 -94 -114 -93 -158 -67 -55 33 -310 206 -409 278 -48 35 -119 87 -159 116 -39 28 -76 50 -82 47 -18 -7 -68 -77 -160 -224 -82 -131 -86 -135 -119 -134 -66 2 -378 168 -378 203 0 32 104 169 309 404 14 17 13 21 -19 50 -19 18 -82 71 -140 119 -149 122 -224 194 -215 207 10 17 87 54 220 104 196 74 172 78 305 -57 62 -64 116 -116 119 -116 3 0 60 53 126 118 149 145 355 328 390 346 27 14 34 13 145 -17z m-9137 -25 c31 -23 73 -53 92 -67 43 -29 114 -86 169 -137 l41 -36 -13 -48 c-45 -169 -90 -229 -225 -299 -42 -22 -77 -43 -77 -47 0 -3 53 -37 118 -74 181 -105 232 -141 232 -167 0 -24 -21 -88 -49 -151 -10 -23 -31 -70 -47 -106 -15 -36 -35 -76 -45 -90 -9 -14 -20 -35 -24 -48 -3 -13 -18 -27 -31 -32 -38 -15 -998 -14 -1025 1 -22 11 -22 11 -16 288 7 358 38 973 49 987 19 25 506 74 694 71 l101 -2 56 -43z m5763 20 c145 -95 315 -232 326 -262 7 -18 -34 -147 -70 -216 -22 -43 -80 -88 -179 -138 -28 -14 -54 -29 -57 -34 -3 -4 38 -33 90 -63 131 -74 236 -142 253 -162 12 -15 9 -29 -19 -105 -18 -48 -59 -142 -91 -210 -46 -96 -65 -125 -86 -133 -30 -11 -867 -18 -878 -7 -4 4 -2 58 5 120 9 87 10 202 1 503 -13 495 -17 514 -115 593 -21 17 -20 35 2 61 14 17 38 24 132 37 149 19 429 41 550 43 88 1 98 -1 136 -27z m-1481 -129 l77 -6 37 -59 c39 -60 51 -64 51 -17 0 23 6 30 28 36 32 8 303 -12 384 -28 55 -11 59 -14 68 -48 26 -101 33 -192 37 -540 5 -375 -3 -511 -31 -529 -12 -7 -380 -4 -408 4 -10 3 -18 12 -18 21 0 8 -3 13 -7 11 -72 -37 -92 -41 -203 -41 -63 0 -177 3 -253 7 l-139 8 -76 58 c-42 32 -99 81 -126 109 l-49 50 26 168 c15 92 32 219 39 280 12 110 11 114 -10 142 l-21 29 30 89 c17 48 35 104 41 123 23 79 80 105 268 125 159 16 162 16 255 8z m3289 -52 l70 -6 27 -50 c77 -142 189 -573 191 -740 1 -50 -35 -114 -124 -217 -100 -117 -96 -115 -320 -128 -208 -12 -552 1 -593 22 -29 16 -173 134 -222 184 -38 38 -42 47 -38 81 2 21 7 131 11 245 l6 208 59 172 c32 94 64 177 71 184 32 32 653 64 862 45z m-6937 -16 c15 -5 16 -9 79 -669 8 -88 17 -164 20 -168 3 -4 58 -8 122 -7 86 0 139 6 202 22 l85 22 12 60 c21 105 42 304 54 510 6 110 16 206 22 213 13 16 315 6 334 -12 23 -22 31 -195 26 -596 -4 -402 -13 -534 -36 -557 -14 -13 -275 -32 -352 -25 -63 5 -71 12 -80 69 -11 75 -16 80 -40 39 -12 -20 -34 -50 -48 -66 -26 -29 -30 -30 -115 -30 -106 0 -308 24 -378 45 -28 8 -63 24 -77 36 -28 21 -97 155 -97 187 0 10 16 59 35 108 57 145 48 182 -68 261 l-47 33 0 78 c0 63 5 88 23 123 33 63 87 219 87 252 0 16 -5 37 -10 48 -20 36 -4 40 118 34 64 -4 122 -8 129 -10z"/>
    
    <!-- Red letters (solid fill) -->
    <path fill="#E6231C" d="M2846 2164 c-174 -27 -189 -47 -206 -264 -6 -80 -13 -151 -16 -159 -4 -12 -30 -13 -150 -8 -239 11 -240 10 -260 -297 -29 -451 -64 -613 -93 -428 -5 37 -15 130 -22 207 -18 226 -19 228 -168 377 -69 70 -140 132 -156 140 -21 8 -91 13 -224 14 l-194 1 -57 46 c-31 25 -96 73 -145 106 l-89 61 -149 0 c-153 0 -421 -20 -583 -45 -140 -20 -177 -47 -188 -135 -12 -90 -36 -712 -38 -985 -1 -208 1 -288 11 -310 7 -16 70 -87 140 -157 102 -101 136 -129 171 -140 65 -19 1074 -19 1108 0 13 8 34 38 47 67 13 29 29 56 35 60 6 4 38 -19 74 -53 72 -69 106 -86 231 -113 162 -35 843 -55 962 -28 25 5 56 18 71 29 26 20 47 20 969 23 848 2 944 4 958 18 9 9 29 52 44 95 37 107 38 109 66 90 13 -9 43 -34 67 -56 24 -22 69 -58 100 -79 53 -36 64 -40 150 -46 103 -8 372 -12 458 -7 30 2 102 1 160 -3 58 -3 400 -7 761 -8 l655 -2 39 -33 c22 -17 49 -32 60 -32 11 0 90 11 175 24 85 14 182 29 215 33 l60 8 3 93 c2 69 6 94 17 98 8 4 51 -24 102 -67 48 -39 104 -79 123 -87 93 -39 805 -38 864 2 14 8 54 45 89 81 35 36 71 65 80 65 8 0 51 -23 94 -52 86 -57 254 -140 321 -158 91 -24 120 1 240 198 40 66 79 123 88 126 9 3 26 -2 39 -11 102 -80 202 -151 369 -264 253 -170 267 -173 397 -72 102 79 265 219 316 272 40 41 43 49 43 99 l0 54 -132 132 c-147 146 -139 141 -415 256 -107 44 -153 68 -153 79 0 23 188 192 348 314 159 121 182 154 148 215 -21 39 -248 262 -293 288 -73 43 -378 134 -451 134 -24 0 -59 -7 -77 -16 -39 -18 -203 -161 -351 -306 -56 -54 -108 -98 -116 -98 -8 0 -44 30 -79 66 -104 108 -123 124 -143 124 -26 0 -186 -52 -307 -100 -56 -22 -106 -40 -111 -40 -6 0 -46 33 -88 74 -68 64 -85 76 -127 83 -62 10 -530 7 -648 -5 -49 -5 -97 -6 -105 -1 -12 6 -14 23 -12 74 l4 66 -107 109 c-59 60 -119 113 -134 119 -52 20 -379 61 -489 61 -147 0 -172 -32 -172 -218 0 -75 -4 -123 -11 -127 -5 -4 -36 13 -67 38 -114 89 -108 87 -289 87 -90 0 -238 -7 -330 -15 -373 -34 -415 -49 -433 -155 l-5 -35 -195 4 c-174 3 -198 6 -223 23 -48 34 -153 42 -338 24 -188 -18 -247 -31 -313 -70 -58 -34 -77 -64 -117 -183 -23 -69 -35 -93 -48 -93 -9 0 -48 28 -86 61 -76 68 -133 98 -182 99 -17 0 -34 3 -36 8 -3 4 0 48 5 99 17 145 16 146 -135 295 -73 72 -146 137 -164 144 -18 8 -58 14 -90 14 -81 0 -241 -24 -285 -43 -64 -27 -68 -42 -89 -304 -20 -254 -24 -283 -39 -283 -5 0 -31 14 -59 31 -28 18 -69 34 -95 36 -25 3 -47 11 -49 17 -3 6 -1 34 4 61 4 28 8 81 8 120 l1 70 -137 134 c-75 73 -151 140 -169 147 -41 17 -140 16 -258 -2z m1226 -93 c3 -3 0 -58 -7 -121 -7 -63 -23 -194 -34 -290 -12 -97 -21 -184 -21 -194 0 -23 31 -20 234 23 82 17 165 31 185 31 45 0 69 -17 202 -140 117 -109 111 -82 74 -339 -30 -207 -57 -336 -94 -446 l-27 -80 -59 -8 c-70 -10 -812 -4 -822 7 -4 4 -1 26 5 49 45 154 122 605 122 713 0 49 -2 52 -66 114 -65 64 -66 65 -60 108 5 38 18 175 44 467 l7 80 65 13 c138 27 232 32 252 13z m-998 1 c2 -4 -4 -82 -15 -172 -10 -91 -23 -210 -29 -265 -5 -55 -13 -120 -16 -144 l-6 -44 44 6 c24 3 110 20 193 36 82 17 166 31 186 31 44 0 90 -34 223 -162 l86 -83 -30 -200 c-39 -266 -56 -354 -86 -452 -41 -131 7 -118 -442 -118 -215 0 -392 2 -395 5 -2 3 0 208 4 455 9 556 1 667 -49 727 -12 15 -13 36 -3 137 6 65 11 140 11 165 0 31 5 48 14 52 60 23 299 43 310 26z m4440 -16 c59 -8 111 -17 114 -20 3 -4 -2 -115 -12 -249 -27 -395 -46 -820 -46 -1056 0 -258 17 -229 -150 -255 -119 -19 -146 -20 -154 -7 -3 5 -11 54 -17 110 l-11 100 40 98 c78 190 76 220 -21 291 l-55 41 -7 84 c-6 74 -4 90 14 131 42 92 81 208 81 242 0 46 -20 83 -66 124 -26 23 -39 44 -45 74 -10 52 -11 300 -1 311 9 10 196 -1 336 -19z m2726 -209 c180 -48 300 -93 300 -111 0 -6 -28 -32 -63 -57 -192 -143 -402 -330 -515 -458 l-56 -64 32 -25 c78 -60 512 -274 709 -349 69 -26 93 -40 93 -53 0 -20 -139 -151 -275 -260 -118 -94 -114 -93 -158 -67 -55 33 -310 206 -409 278 -48 35 -119 87 -159 116 -39 28 -76 50 -82 47 -18 -7 -68 -77 -160 -224 -82 -131 -86 -135 -119 -134 -66 2 -378 168 -378 203 0 32 104 169 309 404 14 17 13 21 -19 50 -19 18 -82 71 -140 119 -149 122 -224 194 -215 207 10 17 87 54 220 104 196 74 172 78 305 -57 62 -64 116 -116 119 -116 3 0 60 53 126 118 149 145 355 328 390 346 27 14 34 13 145 -17z m-9137 -25 c31 -23 73 -53 92 -67 43 -29 114 -86 169 -137 l41 -36 -13 -48 c-45 -169 -90 -229 -225 -299 -42 -22 -77 -43 -77 -47 0 -3 53 -37 118 -74 181 -105 232 -141 232 -167 0 -24 -21 -88 -49 -151 -10 -23 -31 -70 -47 -106 -15 -36 -35 -76 -45 -90 -9 -14 -20 -35 -24 -48 -3 -13 -18 -27 -31 -32 -38 -15 -998 -14 -1025 1 -22 11 -22 11 -16 288 7 358 38 973 49 987 19 25 506 74 694 71 l101 -2 56 -43z m5763 20 c145 -95 315 -232 326 -262 7 -18 -34 -147 -70 -216 -22 -43 -80 -88 -179 -138 -28 -14 -54 -29 -57 -34 -3 -4 38 -33 90 -63 131 -74 236 -142 253 -162 12 -15 9 -29 -19 -105 -18 -48 -59 -142 -91 -210 -46 -96 -65 -125 -86 -133 -30 -11 -867 -18 -878 -7 -4 4 -2 58 5 120 9 87 10 202 1 503 -13 495 -17 514 -115 593 -21 17 -20 35 2 61 14 17 38 24 132 37 149 19 429 41 550 43 88 1 98 -1 136 -27z m-1481 -129 l77 -6 37 -59 c39 -60 51 -64 51 -17 0 23 6 30 28 36 32 8 303 -12 384 -28 55 -11 59 -14 68 -48 26 -101 33 -192 37 -540 5 -375 -3 -511 -31 -529 -12 -7 -380 -4 -408 4 -10 3 -18 12 -18 21 0 8 -3 13 -7 11 -72 -37 -92 -41 -203 -41 -63 0 -177 3 -253 7 l-139 8 -76 58 c-42 32 -99 81 -126 109 l-49 50 26 168 c15 92 32 219 39 280 12 110 11 114 -10 142 l-21 29 30 89 c17 48 35 104 41 123 23 79 80 105 268 125 159 16 162 16 255 8z m3289 -52 l70 -6 27 -50 c77 -142 189 -573 191 -740 1 -50 -35 -114 -124 -217 -100 -117 -96 -115 -320 -128 -208 -12 -552 1 -593 22 -29 16 -173 134 -222 184 -38 38 -42 47 -38 81 2 21 7 131 11 245 l6 208 59 172 c32 94 64 177 71 184 32 32 653 64 862 45z m-6937 -16 c15 -5 16 -9 79 -669 8 -88 17 -164 20 -168 3 -4 58 -8 122 -7 86 0 139 6 202 22 l85 22 12 60 c21 105 42 304 54 510 6 110 16 206 22 213 13 16 315 6 334 -12 23 -22 31 -195 26 -596 -4 -402 -13 -534 -36 -557 -14 -13 -275 -32 -352 -25 -63 5 -71 12 -80 69 -11 75 -16 80 -40 39 -12 -20 -34 -50 -48 -66 -26 -29 -30 -30 -115 -30 -106 0 -308 24 -378 45 -28 8 -63 24 -77 36 -28 21 -97 155 -97 187 0 10 16 59 35 108 57 145 48 182 -68 261 l-47 33 0 78 c0 63 5 88 23 123 33 63 87 219 87 252 0 16 -5 37 -10 48 -20 36 -4 40 118 34 64 -4 122 -8 129 -10z"/>
    
    <!-- Additional paths from the original SVG -->
    <path fill="#E6231C" stroke="#E6231C" d="M4208 1160 c-86 -15 -168 -30 -182 -34 l-26 -6 0 -199 c0 -126 4 -201 10 -203 25 -8 296 14 307 25 10 11 51 241 68 390 6 45 4 57 -6 56 -8 -1 -84 -14 -171 -29z"/>
    <path fill="#E6231C" stroke="#E6231C" d="M3300 1174 c-36 -7 -114 -20 -175 -29 -60 -9 -113 -22 -117 -28 -11 -18 -10 -381 2 -393 12 -12 289 2 306 17 7 6 16 32 19 57 4 26 15 94 25 152 11 58 22 135 26 173 8 76 15 72 -86 51z"/>
    <path fill="#E6231C" stroke="#E6231C" d="M551 1627 c-5 -13 -13 -97 -17 -185 -6 -148 -5 -162 10 -162 9 0 90 16 179 36 89 20 175 40 192 43 35 8 55 40 55 91 0 19 5 53 10 75 15 64 24 60 -225 95 -77 11 -152 23 -167 26 -23 5 -30 1 -37 -19z"/>
    <path fill="#E6231C" stroke="#E6231C" d="M708 1087 c-123 -28 -178 -45 -180 -55 -2 -8 -1 -83 2 -166 l5 -151 159 2 c88 2 164 7 168 11 9 9 54 275 59 352 3 39 1 45 -16 46 -11 1 -100 -16 -197 -39z"/>
    <path fill="#E6231C" stroke="#E6231C" d="M6346 1642 c-3 -5 -8 -54 -11 -108 -3 -54 -8 -134 -10 -176 -5 -70 -3 -78 12 -78 33 0 399 83 409 93 9 8 38 197 31 203 -9 9 -72 21 -222 44 -77 11 -154 23 -172 25 -17 3 -34 2 -37 -3z"/>
    <path fill="#E6231C" stroke="#E6231C" d="M6660 1122 c-8 -3 -87 -22 -175 -41 l-160 -36 -3 -75 c-1 -41 1 -115 5 -165 l8 -90 60 -3 c33 -2 106 -1 162 3 83 6 103 10 108 24 6 20 55 350 55 374 0 17 -29 22 -60 9z"/>
    <path fill="#E6231C" stroke="#E6231C" d="M5133 1389 c-18 -5 -33 -12 -33 -15 0 -3 -9 -49 -19 -102 -39 -194 -68 -459 -53 -474 5 -5 139 -7 298 -6 l289 3 -1 170 c0 170 -20 313 -48 350 -6 8 -45 29 -86 47 -69 29 -85 32 -195 34 -66 2 -135 -2 -152 -7z m377 -345 c6 -14 10 -54 10 -89 0 -55 -3 -65 -20 -70 -30 -10 -98 4 -104 21 -8 20 12 113 30 142 21 32 71 31 84 -4z"/>
    <path fill="#E6231C" stroke="#E6231C" d="M8100 1393 c-24 -3 -50 -9 -56 -14 -24 -20 -81 -348 -86 -499 l-3 -85 295 0 295 0 3 95 c4 123 -14 335 -36 430 l-17 75 -175 1 c-96 0 -195 -1 -220 -3z m340 -352 c11 -21 14 -110 4 -135 -9 -23 -102 -23 -111 0 -10 28 17 123 40 139 29 20 54 19 67 -4z"/>
</g>
</svg>